<svg xmlns="http://www.w3.org/2000/svg" width="64" height="64" viewBox="0 0 64 64" role="img" aria-label="memor.re integrator">

  <rect x="4" y="4" width="56" height="56" rx="12" fill="#F7F7F4" stroke="#DEDED8"/>
  <path d="M16 44V25.8C16 18.6 25.7 16.4 29.2 23.6L32 29.2L34.8 23.6C38.3 16.4 48 18.6 48 25.8V44" fill="none" stroke="#DEDED8" stroke-width="5.4" stroke-linecap="round" stroke-linejoin="round"/>
  <circle cx="32" cy="30" r="4.8" fill="#FFFFFF" stroke="#DEDED8" stroke-width="2.2"/>
  <g transform="translate(12 12)" fill="none" stroke="#00522D" stroke-width="2.8" stroke-linecap="round" stroke-linejoin="round">
    <path d="M12 12H20V20H12Z"/>
    <path d="M24 24H32V32H24Z"/>
    <path d="M20 16H26C29 16 30 18 30 21V24"/>
    <path d="M16 20V26C16 29 18 30 21 30H24"/>
  </g>
  <title>Integrator</title>
</svg>
